# File created by Blade
# Date/Time:  Tue Sep 30 19:07:05 2014
#---------------------------------------------------------
:version 1.10
:name HOM
:units
  mass 1.0
  length 1.000000
  angle deg
:documentation
     Acclaim Skeleton File
:root
   axis xyz
   order TX TY TZ RX RY RZ
   position 0.000000 0.000000 0.000000
   orientation 0 0 0
:bonedata
   begin
      id 1
      name Spine_dum
      direction 0.000000 1.000000 0.000000
      length 7.508948
      axis 0.0 0.0 0.0 xyz
   end
   begin
      id 2
      name LeftUpLeg_dum
      direction 1.000000 0.000000 0.000000
      length 3.000560
      axis 0.0 0.0 0.0 xyz
   end
   begin
      id 3
      name RightUpLeg_dum
      direction -1.000000 0.000000 0.000000
      length 3.000560
      axis 0.0 0.0 0.0 xyz
   end
   begin
      id 4
      name Spine
      direction 0.000000 1.000000 0.000000
      length 0.000000
      axis 0.0 0.0 0.0 xyz
      dof rx ry rz
   end
   begin
      id 5
      name Spine_dum1
      direction 0.000000 1.000000 0.000000
      length 13.861154
      axis 0.0 0.0 0.0 xyz
   end
   begin
      id 6
      name Spine_dum2
      direction 0.000000 1.000000 0.000000
      length 8.204781
      axis 0.0 0.0 0.0 xyz
   end
   begin
      id 7
      name Spine_dum3
      direction 0.000000 1.000000 0.000000
      length 8.204781
      axis 0.0 0.0 0.0 xyz
   end
   begin
      id 8
      name Head
      direction 0.000000 1.000000 0.000000
      length 4.527550
      axis 0.0 0.0 0.0 xyz
      dof rx ry rz
   end
   begin
      id 9
      name LeftShoulder
      direction 1.000000 0.000000 0.000000
      length 6.635956
      axis 0.0 0.0 -90.0 xyz
      dof rx ry rz
   end
   begin
      id 10
      name LeftArm
      direction 1.000000 0.000000 0.000000
      length 10.274218
      axis 0.0 0.0 -90.0 xyz
      dof rx ry rz
   end
   begin
      id 11
      name LeftForeArm
      direction 1.000000 0.000000 0.000000
      length 8.522147
      axis 0.0 0.0 -90.0 xyz
      dof ry rz rx
   end
   begin
      id 12
      name LeftHand
      direction 0.000000 0.000000 0.000000
      length 0.000000
      axis 0.0 0.0 -90.0 xyz
      dof rx ry rz
   end
   begin
      id 13
      name LeftHand_dum1
      direction 0.000000 0.000000 0.000000
      length 0.000000
      axis 0.0 0.0 -90.0 xyz
   end
   begin
      id 14
      name LeftHand_dum2
      direction 1.000000 0.000000 0.000000
      length 3.937000
      axis 0.0 0.0 -90.0 xyz
   end
   begin
      id 15
      name LeftHandThumb1
      direction 0.000000 0.000000 1.000000
      length 3.937000
      axis 0.0 0.0 -90.0 xyz
      dof rx rz ry
   end
   begin
      id 16
      name RightShoulder
      direction -1.000000 0.000000 0.000000
      length 6.635956
      axis 0.0 0.0 90.0 xyz
      dof rx ry rz
   end
   begin
      id 17
      name RightArm
      direction -1.000000 0.000000 0.000000
      length 10.274218
      axis 0.0 0.0 90.0 xyz
      dof rx ry rz
   end
   begin
      id 18
      name RightForeArm
      direction -1.000000 0.000000 0.000000
      length 8.522147
      axis 0.0 0.0 90.0 xyz
      dof ry rz rx
   end
   begin
      id 19
      name RightHand
      direction 0.000000 0.000000 0.000000
      length 0.000000
      axis 0.0 0.0 90.0 xyz
      dof rx ry rz
   end
   begin
      id 20
      name RightHand_dum1
      direction 0.000000 0.000000 0.000000
      length 0.000000
      axis 0.0 0.0 90.0 xyz
   end
   begin
      id 21
      name RightHand_dum2
      direction -1.000000 0.000000 0.000000
      length 3.937000
      axis 0.0 0.0 90.0 xyz
   end
   begin
      id 22
      name RightHandThumb1
      direction 0.000000 0.000000 1.000000
      length 3.937000
      axis 0.0 0.0 90.0 xyz
      dof rx rz ry
   end
   begin
      id 23
      name LeftUpLeg
      direction 0.000000 -1.000000 0.000000
      length 16.490845
      axis 0.0 0.0 0.0 xyz
      dof rx ry rz
   end
   begin
      id 24
      name LeftLeg
      direction 0.000000 -1.000000 0.000000
      length 14.556576
      axis 0.0 0.0 0.0 xyz
      dof rx ry rz
   end
   begin
      id 25
      name LeftFoot
      direction 0.000000 -0.258819 0.965926
      length 4.831116
      axis 15.0 0.0 0.0 xyz
      dof rx ry rz
   end
   begin
      id 26
      name LeftToeBase
      direction 0.000000 0.000000 1.000000
      length 2.952750
      axis 0.0 0.0 0.0 xyz
      dof rx ry rz
   end
   begin
      id 27
      name RightUpLeg
      direction 0.000000 -1.000000 0.000000
      length 16.490845
      axis 0.0 0.0 0.0 xyz
      dof rx ry rz
   end
   begin
      id 28
      name RightLeg
      direction 0.000000 -1.000000 0.000000
      length 14.556576
      axis 0.0 0.0 0.0 xyz
      dof rx ry rz
   end
   begin
      id 29
      name RightFoot
      direction 0.000000 -0.258819 0.965926
      length 4.831116
      axis 15.0 0.0 0.0 xyz
      dof rx ry rz
   end
   begin
      id 30
      name RightToeBase
      direction 0.000000 0.000000 1.000000
      length 2.952750
      axis 0.0 0.0 0.0 xyz
      dof rx ry rz
   end
:hierarchy
   begin
      root Spine_dum LeftUpLeg_dum RightUpLeg_dum
      Spine_dum Spine
      LeftUpLeg_dum LeftUpLeg
      RightUpLeg_dum RightUpLeg
      Spine Spine_dum1 Spine_dum2 Spine_dum3
      Spine_dum1 Head
      Spine_dum2 LeftShoulder
      Spine_dum3 RightShoulder
      LeftShoulder LeftArm
      LeftArm LeftForeArm
      LeftForeArm LeftHand
      LeftHand LeftHand_dum1 LeftHand_dum2
      LeftHand_dum1 LeftHandThumb1
      RightShoulder RightArm
      RightArm RightForeArm
      RightForeArm RightHand
      RightHand RightHand_dum1 RightHand_dum2
      RightHand_dum1 RightHandThumb1
      LeftUpLeg LeftLeg
      LeftLeg LeftFoot
      LeftFoot LeftToeBase
      RightUpLeg RightLeg
      RightLeg RightFoot
      RightFoot RightToeBase
   end

# File created by Blade
# Date/Time:  Thu Sep 25 19:26:26 2014
# Frame Rate: 120.000 fps
#------------------------------------------------------
:FULLY-SPECIFIED
:DEGREES
137
root -0.243213 31.718222 -6.848313 17.087767 -7.800340 4.117023
Spine -14.188413 6.080904 3.330834
Head -7.364293 -22.620618 13.791181
LeftShoulder -9.108865 17.898120 8.387385
LeftArm 20.918927 37.789970 -78.339275
LeftForeArm 6.265911 -0.000000 21.668979
LeftHand -23.429372 0.000000 -9.120493
LeftHandThumb1 -26.253704 0.000000 33.147579
RightShoulder -18.643362 12.340136 -22.479893
RightArm -11.679468 -11.177633 82.411857
RightForeArm -22.376034 -0.000000 15.103473
RightHand -6.241525 -0.000000 3.948051
RightHandThumb1 -24.326973 -0.000000 -32.862282
LeftUpLeg -7.276383 17.711377 7.085554
LeftLeg -3.144348 -0.000000 0.000000
LeftFoot -9.165946 6.868411 -32.873279
LeftToeBase 7.808790 -0.000000 -0.000000
RightUpLeg -13.930187 -14.581005 -19.432790
RightLeg -2.147319 -0.000000 0.000000
RightFoot -0.389948 -5.844765 13.824376
RightToeBase 0.850073 -0.000000 -0.000000
138
root -0.239953 31.719529 -6.886921 17.317257 -8.088727 4.187559
Spine -14.099017 6.129099 3.565024
Head -7.621783 -22.723597 13.837938
LeftShoulder -8.924178 17.782437 8.451363
LeftArm 21.447631 38.623088 -77.796846
LeftForeArm 6.264952 -0.000000 22.030150
LeftHand -23.467872 -0.000000 -8.335740
LeftHandThumb1 -26.253704 0.000000 33.147579
RightShoulder -18.533928 12.380749 -22.367617
RightArm -11.581211 -11.928042 82.915335
RightForeArm -22.263666 -0.000000 15.210456
RightHand -6.389174 -0.000000 3.684666
RightHandThumb1 -24.326973 -0.000000 -32.862282
LeftUpLeg -7.543235 17.768045 6.892486
LeftLeg -3.103508 -0.000000 0.000000
LeftFoot -9.304629 7.094333 -32.765810
LeftToeBase 8.036911 -0.000000 -0.000000
RightUpLeg -14.348101 -14.559853 -19.447134
RightLeg -2.180960 -0.000000 0.000000
RightFoot -0.275276 -5.739632 13.752658
RightToeBase 0.785890 -0.000000 -0.000000
139
root -0.241051 31.721338 -6.930657 17.578227 -8.375007 4.207630
Spine -14.012885 6.172361 3.869318
Head -7.892027 -22.771919 13.898831
LeftShoulder -8.808348 17.802298 8.467204
LeftArm 22.229548 39.441638 -77.055231
LeftForeArm 6.335812 -0.000000 22.378668
LeftHand -23.367320 -0.000000 -8.621023
LeftHandThumb1 -26.253704 0.000000 33.147579
RightShoulder -18.424614 12.497397 -22.298368
RightArm -11.487628 -12.545317 83.390113
RightForeArm -22.251619 -0.000000 15.231657
RightHand -6.397824 0.000000 3.615869
RightHandThumb1 -24.326973 -0.000000 -32.862282
LeftUpLeg -7.835350 17.826341 6.757588
LeftLeg -3.074817 -0.000000 0.000000
LeftFoot -9.369574 7.253866 -32.957334
LeftToeBase 7.915213 -0.000000 -0.000000
RightUpLeg -14.821264 -14.774749 -19.319025
RightLeg -2.226571 -0.000000 0.000000
RightFoot -0.101470 -5.402163 13.540499
RightToeBase 0.925605 -0.000000 -0.000000
140
root -0.237469 31.723280 -6.971286 17.829047 -8.671869 4.269487
Spine -13.922106 6.219547 4.140976
Head -8.142734 -22.808103 13.920655
LeftShoulder -8.594812 17.672811 8.530050
LeftArm 22.736574 40.140317 -76.492309
LeftForeArm 6.343071 -0.000000 22.768710
LeftHand -23.500341 -0.000000 -8.120328
LeftHandThumb1 -26.253704 0.000000 33.147579
RightShoulder -18.304336 12.549675 -22.239178
RightArm -11.356290 -13.197689 83.860093
RightForeArm -22.379207 -0.000000 15.261166
RightHand -6.330465 -0.000000 3.592906
RightHandThumb1 -24.326973 -0.000000 -32.862282
LeftUpLeg -8.103743 17.876990 6.575013
LeftLeg -3.073628 -0.000000 0.000000
LeftFoot -9.462409 7.465026 -32.895363
LeftToeBase 8.070938 -0.000000 -0.000000
RightUpLeg -15.279624 -14.824818 -19.296591
RightLeg -2.244037 -0.000000 0.000000
RightFoot 0.026789 -5.201239 13.464510
RightToeBase 0.902876 -0.000000 -0.000000
141
root -0.230170 31.724792 -7.012463 18.087446 -8.989479 4.369311
Spine -13.841824 6.248136 4.380033
Head -8.391475 -22.816439 13.951354
LeftShoulder -8.432946 17.605365 8.584103
LeftArm 23.420245 40.888629 -75.778602
LeftForeArm 6.250642 -0.000000 23.108188
LeftHand -23.441751 -0.000000 -7.939662
LeftHandThumb1 -26.253704 0.000000 33.147579
RightShoulder -18.188223 12.588117 -22.168915
RightArm -11.167838 -13.903931 84.312909
RightForeArm -22.495203 -0.000000 15.298771
RightHand -6.375570 -0.000000 3.576348
RightHandThumb1 -24.326973 -0.000000 -32.862282
LeftUpLeg -8.380937 17.925818 6.337025
LeftLeg -3.090010 -0.000000 0.000000
LeftFoot -9.527697 7.695522 -32.967355
LeftToeBase 8.022149 -0.000000 -0.000000
RightUpLeg -15.754726 -14.861493 -19.322415
RightLeg -2.272094 -0.000000 0.000000
RightFoot 0.170654 -5.036759 13.370377
RightToeBase 0.841988 -0.000000 -0.000000
142
root -0.222855 31.725922 -7.055540 18.353469 -9.281894 4.434522
Spine -13.744454 6.301668 4.690402
Head -8.619334 -22.859469 13.894521
LeftShoulder -8.201356 17.430442 8.656905
LeftArm 23.918379 41.507787 -75.225035
LeftForeArm 6.279888 -0.000000 23.479496
LeftHand -23.486146 -0.000000 -8.011298
LeftHandThumb1 -26.253704 0.000000 33.147579
RightShoulder -18.118554 12.634001 -22.172939
RightArm -10.978009 -14.719134 84.802940
RightForeArm -22.596312 -0.000000 15.291155
RightHand -6.452162 0.000000 3.470995
RightHandThumb1 -24.326973 -0.000000 -32.862282
LeftUpLeg -8.639436 17.876262 6.169798
LeftLeg -3.153370 -0.000000 0.000000
LeftFoot -9.681945 7.947455 -33.293786
LeftToeBase 8.281010 -0.000000 -0.000000
RightUpLeg -16.210555 -14.888203 -19.314342
RightLeg -2.336516 -0.000000 0.000000
RightFoot 0.333431 -4.879021 13.327540
RightToeBase 0.862834 -0.000000 -0.000000
143
root -0.209945 31.725874 -7.094924 18.608166 -9.613599 4.551182
Spine -13.644047 6.323910 4.948318
Head -8.818169 -22.813629 13.867330
LeftShoulder -8.025930 17.352507 8.723877
LeftArm 24.585360 42.118836 -74.561223
LeftForeArm 6.186301 0.000000 23.784199
LeftHand -23.366874 -0.000000 -7.861383
LeftHandThumb1 -26.253704 0.000000 33.147579
RightShoulder -18.007482 12.685760 -22.158515
RightArm -10.789861 -15.552709 85.249145
RightForeArm -22.666220 0.000000 15.316253
RightHand -6.401674 0.000000 3.568784
RightHandThumb1 -24.326973 -0.000000 -32.862282
LeftUpLeg -8.915955 18.064804 5.869243
LeftLeg -3.194767 -0.000000 0.000000
LeftFoot -9.694519 8.101284 -33.201001
LeftToeBase 8.263311 -0.000000 -0.000000
RightUpLeg -16.632482 -14.776456 -19.420741
RightLeg -2.448015 -0.000000 0.000000
RightFoot 0.515586 -4.864036 13.409796
RightToeBase 0.639470 -0.000000 -0.000000
144
root -0.192845 31.728065 -7.146027 18.920099 -9.906645 4.707031
Spine -13.578219 6.313847 5.182373
Head -9.068691 -22.806234 13.812507
LeftShoulder -7.807202 17.153348 8.796834
LeftArm 25.134102 42.711323 -73.927845
LeftForeArm 6.069492 0.000000 24.124926
LeftHand -23.359994 -0.000000 -7.777044
LeftHandThumb1 -26.253704 0.000000 33.147579
RightShoulder -17.915196 12.746171 -22.166482
RightArm -10.596652 -16.360069 85.699058
RightForeArm -22.728445 -0.000000 15.328921
RightHand -6.398957 -0.000000 3.528912
RightHandThumb1 -24.326973 -0.000000 -32.862282
LeftUpLeg -9.306240 18.092538 5.534293
LeftLeg -3.185121 -0.000000 0.000000
LeftFoot -9.759939 8.316038 -33.232784
LeftToeBase 8.289944 -0.000000 -0.000000
RightUpLeg -17.162800 -14.723693 -19.540164
RightLeg -2.461506 -0.000000 0.000000
RightFoot 0.583987 -4.816501 13.292692
RightToeBase 0.846111 -0.000000 -0.000000
145
root -0.204271 31.731331 -7.203141 19.295715 -10.194325 4.642784
Spine -13.529091 6.317485 5.625797
Head -9.299454 -22.740087 13.793175
LeftShoulder -7.647773 17.031340 8.835456
LeftArm 25.770167 43.223478 -73.219709
LeftForeArm 6.036982 0.000000 24.478510
LeftHand -23.471261 -0.000000 -7.798918
LeftHandThumb1 -26.253704 0.000000 33.147579
RightShoulder -17.798157 12.837050 -22.117853
RightArm -10.362901 -17.187270 86.070770
RightForeArm -22.823769 0.000000 15.285772
RightHand -6.325628 -0.000000 3.785248
RightHandThumb1 -24.326973 -0.000000 -32.862282
LeftUpLeg -9.692085 18.104905 5.492828
LeftLeg -3.199792 -0.000000 0.000000
LeftFoot -9.837968 8.517090 -33.413439
LeftToeBase 8.332039 -0.000000 -0.000000
RightUpLeg -17.790197 -14.995847 -19.251963
RightLeg -2.493450 -0.000000 0.000000
RightFoot 0.886162 -4.437290 13.226438
RightToeBase 0.584891 -0.000000 -0.000000
146
root -0.204205 31.733223 -7.257956 19.636904 -10.501079 4.652741
Spine -13.429496 6.315559 6.006445
Head -9.519966 -22.638123 13.772747
LeftShoulder -7.477792 16.854068 8.877021
LeftArm 26.322166 43.641482 -72.619729
LeftForeArm 6.165665 -0.000000 24.809115
LeftHand -23.696253 -0.000000 -7.313136
LeftHandThumb1 -26.253704 0.000000 33.147579
RightShoulder -17.659192 12.899300 -22.076225
RightArm -10.129711 -17.970005 86.436221
RightForeArm -22.807636 -0.000000 15.302127
RightHand -6.242517 -0.000000 3.692495
RightHandThumb1 -24.326973 -0.000000 -32.862282
LeftUpLeg -10.076239 18.217896 5.333843
LeftLeg -3.196123 -0.000000 0.000000
LeftFoot -9.874247 8.646567 -33.457627
LeftToeBase 8.311179 -0.000000 -0.000000
RightUpLeg -18.355946 -15.052973 -19.133516
RightLeg -2.549141 -0.000000 0.000000
RightFoot 1.055391 -4.249544 13.038583
RightToeBase 0.697500 -0.000000 -0.000000
